<svg xmlns:xlink = "http://www.w3.org/1999/xlink" viewBox = "-201.600006 -201.600006 1267.199951 1267.199951" xmlns = "http://www.w3.org/2000/svg" version = "1.1">
<path d = "M0,0 V960 M96,0 V960 M192,0 V960 M288,0 V960 M384,0 V960 M480,0 V960 M576,0 V960 M672,0 V960 M768,0 V960 M864,0 V960 M960,0 V960 M0,0 H960 M0,120 H960 M0,240 H960 M0,360 H960 M0,480 H960 M0,600 H960 M0,720 H960 M0,840 H960 M0,960 H960" fill = "none" stroke = "#D3D3D3" stroke-opacity = "1.000000" stroke-width = "0.960000" stroke-linejoin="round"/>
<path d = "M0,480 L3.2,429.826 6.4,380.202 9.6,331.672 12.8,284.766 16,240 19.2,197.863 22.4,158.817 25.6,123.29 28.8,91.6718 32,64.3078 35.2,41.4982 38.4,23.4929 41.6,10.4892 44.8,2.62949 48,0 51.2,2.62949 54.4,10.4892 57.6,23.4929 60.8,41.4982 64,64.3078 67.2,91.6718 70.4,123.29 73.6,158.817 76.8,197.863 80,240 83.2,284.766 86.4,331.672 89.6,380.202 92.8,429.826 96,480 99.2,530.174 102.4,579.798 105.6,628.328 108.8,675.234 112,720 115.2,762.137 118.4,801.183 121.6,836.71 124.8,868.328 128,895.692 131.2,918.502 134.4,936.507 137.6,949.511 140.8,957.37 144,960 147.2,957.37 150.4,949.511 153.6,936.507 156.8,918.502 160,895.692 163.2,868.328 166.4,836.71 169.6,801.183 172.8,762.137 176,720 179.2,675.234 182.4,628.328 185.6,579.798 188.8,530.174 192,480 195.2,429.826 198.4,380.202 201.6,331.672 204.8,284.766 208,240 211.2,197.863 214.4,158.817 217.6,123.29 220.8,91.6718 224,64.3078 227.2,41.4982 230.4,23.4929 233.6,10.4892 236.8,2.62949 240,0 243.2,2.62949 246.4,10.4892 249.6,23.4929 252.8,41.4982 256,64.3078 259.2,91.6718 262.4,123.29 265.6,158.817 268.8,197.863 272,240 275.2,284.766 278.4,331.672 281.6,380.202 284.8,429.826 288,480 291.2,530.174 294.4,579.798 297.6,628.328 300.8,675.234 304,720 307.2,762.137 310.4,801.183 313.6,836.71 316.8,868.328 320,895.692 323.2,918.502 326.4,936.507 329.6,949.511 332.8,957.37 336,960 339.2,957.37 342.4,949.511 345.6,936.507 348.8,918.502 352,895.692 355.2,868.328 358.4,836.71 361.6,801.183 364.8,762.137 368,720 371.2,675.234 374.4,628.328 377.6,579.798 380.8,530.174 384,480 387.2,429.826 390.4,380.202 393.6,331.672 396.8,284.766 400,240 403.2,197.863 406.4,158.817 409.6,123.29 412.8,91.6718 416,64.3078 419.2,41.4982 422.4,23.4929 425.6,10.4892 428.8,2.62949 432,0 435.2,2.62949 438.4,10.4892 441.6,23.4929 444.8,41.4982 448,64.3078 451.2,91.6718 454.4,123.29 457.6,158.817 460.8,197.863 464,240 467.2,284.766 470.4,331.672 473.6,380.202 476.8,429.826 480,480 483.2,530.174 486.4,579.798 489.6,628.328 492.8,675.234 496,720 499.2,762.137 502.4,801.183 505.6,836.71 508.8,868.328 512,895.692 515.2,918.502 518.4,936.507 521.6,949.511 524.8,957.37 528,960 531.2,957.37 534.4,949.511 537.6,936.507 540.8,918.502 544,895.692 547.2,868.328 550.4,836.71 553.6,801.183 556.8,762.137 560,720 563.2,675.234 566.4,628.328 569.6,579.798 572.8,530.174 576,480 579.2,429.826 582.4,380.202 585.6,331.672 588.8,284.766 592,240 595.2,197.863 598.4,158.817 601.6,123.29 604.8,91.6718 608,64.3078 611.2,41.4982 614.4,23.4929 617.6,10.4892 620.8,2.62949 624,0 627.2,2.62949 630.4,10.4892 633.6,23.4929 636.8,41.4982 640,64.3078 643.2,91.6718 646.4,123.29 649.6,158.817 652.8,197.863 656,240 659.2,284.766 662.4,331.672 665.6,380.202 668.8,429.826 672,480 675.2,530.174 678.4,579.798 681.6,628.328 684.8,675.234 688,720 691.2,762.137 694.4,801.183 697.6,836.71 700.8,868.328 704,895.692 707.2,918.502 710.4,936.507 713.6,949.511 716.8,957.37 720,960 723.2,957.37 726.4,949.511 729.6,936.507 732.8,918.502 736,895.692 739.2,868.328 742.4,836.71 745.6,801.183 748.8,762.137 752,720 755.2,675.234 758.4,628.328 761.6,579.798 764.8,530.174 768,480 771.2,429.826 774.4,380.202 777.6,331.672 780.8,284.766 784,240 787.2,197.863 790.4,158.817 793.6,123.29 796.8,91.6718 800,64.3078 803.2,41.4982 806.4,23.4929 809.6,10.4892 812.8,2.62949 816,0 819.2,2.62949 822.4,10.4892 825.6,23.4929 828.8,41.4982 832,64.3078 835.2,91.6718 838.4,123.29 841.6,158.817 844.8,197.863 848,240 851.2,284.766 854.4,331.672 857.6,380.202 860.8,429.826 864,480 867.2,530.174 870.4,579.798 873.6,628.328 876.8,675.234 880,720 883.2,762.137 886.4,801.183 889.6,836.71 892.8,868.328 896,895.692 899.2,918.502 902.4,936.507 905.6,949.511 908.8,957.37 912,960 915.2,957.37 918.4,949.511 921.6,936.507 924.8,918.502 928,895.692 931.2,868.328 934.4,836.71 937.6,801.183 940.8,762.137 944,720 947.2,675.234 950.4,628.328 953.6,579.798 956.8,530.174" fill = "none" stroke = "#FF0000" stroke-opacity = "1.000000" stroke-width = "4.800000" stroke-linejoin="round"/>
<path d = " M0,940.8 V979.2  M96,940.8 V979.2  M192,940.8 V979.2  M288,940.8 V979.2  M384,940.8 V979.2  M480,940.8 V979.2  M576,940.8 V979.2  M672,940.8 V979.2  M768,940.8 V979.2  M864,940.8 V979.2  M960,940.8 V979.2  M-19.2,0 H19.2  M-19.2,120 H19.2  M-19.2,240 H19.2  M-19.2,360 H19.2  M-19.2,480 H19.2  M-19.2,600 H19.2  M-19.2,720 H19.2  M-19.2,840 H19.2  M-19.2,960 H19.2 M0,0 V979.2 M-19.2,960 H960 " fill = "none" stroke = "#000000" stroke-opacity = "1.000000" stroke-width = "2.880000" stroke-linejoin="round"/>
<style>
@import url('https://fonts.googleapis.com/css?family=JetBrains+Mono:400');
text {
font-family: "JetBrains Mono", monospace;
font-optical-sizing: auto;
font-style: normal;
}
</style>
<text x = "0.000000" y = "1056.000000" font-size = "28.799999" text-anchor = "middle" dominant-baseline = "middle">0</text>
<text x = "96.000000" y = "1056.000000" font-size = "28.799999" text-anchor = "middle" dominant-baseline = "middle">1</text>
<text x = "192.000000" y = "1056.000000" font-size = "28.799999" text-anchor = "middle" dominant-baseline = "middle">2</text>
<text x = "288.000000" y = "1056.000000" font-size = "28.799999" text-anchor = "middle" dominant-baseline = "middle">3</text>
<text x = "384.000000" y = "1056.000000" font-size = "28.799999" text-anchor = "middle" dominant-baseline = "middle">4</text>
<text x = "480.000000" y = "1056.000000" font-size = "28.799999" text-anchor = "middle" dominant-baseline = "middle">5</text>
<text x = "576.000000" y = "1056.000000" font-size = "28.799999" text-anchor = "middle" dominant-baseline = "middle">6</text>
<text x = "672.000000" y = "1056.000000" font-size = "28.799999" text-anchor = "middle" dominant-baseline = "middle">7</text>
<text x = "768.000000" y = "1056.000000" font-size = "28.799999" text-anchor = "middle" dominant-baseline = "middle">8</text>
<text x = "864.000000" y = "1056.000000" font-size = "28.799999" text-anchor = "middle" dominant-baseline = "middle">9</text>
<text x = "960.000000" y = "1056.000000" font-size = "28.799999" text-anchor = "middle" dominant-baseline = "middle">10</text>
<text x = "-96.000000" y = "960.000000" font-size = "28.799999" text-anchor = "middle" dominant-baseline = "middle">-1</text>
<text x = "-96.000000" y = "840.000000" font-size = "28.799999" text-anchor = "middle" dominant-baseline = "middle">-0.75</text>
<text x = "-96.000000" y = "720.000000" font-size = "28.799999" text-anchor = "middle" dominant-baseline = "middle">-0.5</text>
<text x = "-96.000000" y = "600.000000" font-size = "28.799999" text-anchor = "middle" dominant-baseline = "middle">-0.25</text>
<text x = "-96.000000" y = "480.000000" font-size = "28.799999" text-anchor = "middle" dominant-baseline = "middle">0</text>
<text x = "-96.000000" y = "360.000000" font-size = "28.799999" text-anchor = "middle" dominant-baseline = "middle">0.25</text>
<text x = "-96.000000" y = "240.000000" font-size = "28.799999" text-anchor = "middle" dominant-baseline = "middle">0.5</text>
<text x = "-96.000000" y = "120.000000" font-size = "28.799999" text-anchor = "middle" dominant-baseline = "middle">0.75</text>
<text x = "-96.000000" y = "0.000000" font-size = "28.799999" text-anchor = "middle" dominant-baseline = "middle">1</text>
<text x = "480.000000" y = "-96.000000" font-size = "28.799999" text-anchor = "middle" dominant-baseline = "middle">Sine wave example</text>
</svg>